<svg width="512" height="512" viewBox="0 0 512 512" fill="none" xmlns="http://www.w3.org/2000/svg">
<path d="M391.747 507.93C359.606 507.93 334.438 501.725 316.938 489.594L316.729 489.455C300.624 478.579 293.443 464.356 293.443 443.231C293.443 373.512 237.598 316.621 168.367 314.948C157.351 301.352 140.758 293.335 122.77 293.335C90.3508 293.335 63.9272 319.758 63.9272 352.178C63.9272 384.597 90.3508 411.021 122.77 411.021C139.851 411.021 156.026 403.421 167.042 390.872C197.021 399.447 218.495 427.056 218.495 459.197C218.495 475.72 208.316 490.71 193.187 496.566C187.749 498.658 182.38 500.401 177.221 501.656C160.07 505.908 142.222 508 124.304 508C92.1635 508 66.9949 501.795 49.4954 489.664L49.2862 489.524C33.1811 478.648 26 464.426 26 443.301V68.8389C26 45.0646 40.7108 23.3122 62.5329 14.8065L63.0209 14.5973C81.2873 7.55568 100.669 4 120.539 4C148.497 4 172.271 10.7628 191.025 24.0791C209.71 38.1624 218.425 56.4986 218.425 81.7369C218.425 108.649 228.883 134.026 247.986 153.06C267.019 172.093 292.327 182.621 319.309 182.621H322.725C333.741 196.007 350.264 203.955 368.112 203.955C400.532 203.955 426.955 177.531 426.955 145.112C426.955 112.692 400.532 86.2687 368.112 86.2687C349.706 86.2687 332.555 94.9836 321.54 109.206C305.783 107.672 293.443 94.3561 293.443 78.2509V68.9086C293.443 45.1343 308.154 23.3819 329.976 14.8762L330.464 14.667C348.73 7.6254 368.112 4.06972 387.912 4.06972C415.87 4.06972 439.644 10.8325 458.399 24.1488C477.083 38.2321 485.798 56.5683 485.798 81.8066V468.957C485.798 479.485 479.733 488.967 470.46 493.08C448.289 502.911 421.796 507.93 391.747 507.93Z" fill="#223BC9"/>
<path d="M368.543 168.851C381.558 168.851 392.108 158.301 392.108 145.286C392.108 132.272 381.558 121.721 368.543 121.721C355.528 121.721 344.978 132.272 344.978 145.286C344.978 158.301 355.528 168.851 368.543 168.851Z" fill="#223BC9"/>
<path d="M120.678 378.633C133.692 378.633 144.243 368.082 144.243 355.068C144.243 342.053 133.692 331.503 120.678 331.503C107.663 331.503 97.1125 342.053 97.1125 355.068C97.1125 368.082 107.663 378.633 120.678 378.633Z" fill="#223BC9"/>
</svg>
